<svg width="61" height="44" viewBox="0 0 61 44" fill="none" xmlns="http://www.w3.org/2000/svg">
<path fill-rule="evenodd" clip-rule="evenodd" d="M59.5 15H1.5V30V30.1224H1.50126C1.64788 37.2458 14.5749 43 30.5 43C46.4251 43 59.3521 37.2458 59.4987 30.1224H59.5V30V15Z" fill="#363636"/>
<path d="M1.5 15V14H0.5V15H1.5ZM59.5 15H60.5V14H59.5V15ZM1.5 30.1224H0.5V31.1224H1.5V30.1224ZM1.50126 30.1224L2.50105 30.1019L2.48089 29.1224H1.50126V30.1224ZM59.4987 30.1224V29.1224H58.5191L58.499 30.1019L59.4987 30.1224ZM59.5 30.1224V31.1224H60.5V30.1224H59.5ZM1.5 16H59.5V14H1.5V16ZM2.5 30V15H0.5V30H2.5ZM2.5 30.1224V30H0.5V30.1224H2.5ZM1.50126 29.1224H1.5V31.1224H1.50126V29.1224ZM30.5 42C22.6445 42 15.5757 40.5788 10.4898 38.3186C7.94579 37.1881 5.94026 35.8664 4.57566 34.4467C3.21521 33.0314 2.53114 31.564 2.50105 30.1019L0.501472 30.143C0.544686 32.2425 1.53148 34.1657 3.13374 35.8327C4.73185 37.4953 6.98089 38.9479 9.67759 40.1463C15.0731 42.544 22.4304 44 30.5 44V42ZM58.499 30.1019C58.4689 31.564 57.7848 33.0314 56.4243 34.4467C55.0597 35.8664 53.0542 37.1881 50.5102 38.3186C45.4243 40.5788 38.3555 42 30.5 42V44C38.5696 44 45.9269 42.544 51.3224 40.1463C54.0191 38.9479 56.2681 37.4953 57.8663 35.8327C59.4685 34.1657 60.4553 32.2425 60.4985 30.143L58.499 30.1019ZM59.5 29.1224H59.4987V31.1224H59.5V29.1224ZM58.5 30V30.1224H60.5V30H58.5ZM58.5 15V30H60.5V15H58.5Z" fill="black"/>
<ellipse cx="30.5" cy="13.3367" rx="29" ry="12.3367" fill="#555555" stroke="black" stroke-width="2"/>
<path d="M38.5 25.5L28 26C27 33 23.5 39 19 42C19 42.5 20.6667 43 23 42.5L33 43L43.5 41.5L53.5 38L58.5 33.5L59 30.5V19.5L58.5 17L54 20.5L46.5 23.5L38.5 25.5Z" fill="url(#paint0_linear_116_77)"/>
<path d="M2.5 18.5C9.5 25 19.5 26 27.5 26.5C22 34.5 23.5 38.5 25.5 42C20.5 41.5 6 39 3 32L2.5 30.5V18.5Z" fill="url(#paint1_linear_116_77)"/>
<defs>
<linearGradient id="paint0_linear_116_77" x1="68" y1="25.5" x2="26.5" y2="35" gradientUnits="userSpaceOnUse">
<stop/>
<stop offset="1" stop-opacity="0"/>
</linearGradient>
<linearGradient id="paint1_linear_116_77" x1="-9" y1="20.5" x2="20.5" y2="35" gradientUnits="userSpaceOnUse">
<stop stop-color="white"/>
<stop offset="1" stop-color="white" stop-opacity="0"/>
</linearGradient>
</defs>
</svg>
