<svg width="60" height="61" viewBox="0 0 60 61" fill="none" xmlns="http://www.w3.org/2000/svg">
<path fill-rule="evenodd" clip-rule="evenodd" d="M59 32H1V47V47.1224H1.00126C1.14788 54.2458 14.0749 60 30 60C45.9251 60 58.8521 54.2458 58.9987 47.1224H59V47V32Z" fill="#E2E2E2"/>
<path d="M1 32V31H0V32H1ZM59 32H60V31H59V32ZM1 47.1224H0V48.1224H1V47.1224ZM1.00126 47.1224L2.00105 47.1019L1.98089 46.1224H1.00126V47.1224ZM58.9987 47.1224V46.1224H58.0191L57.999 47.1019L58.9987 47.1224ZM59 47.1224V48.1224H60V47.1224H59ZM1 33H59V31H1V33ZM2 47V32H0V47H2ZM2 47.1224V47H0V47.1224H2ZM1.00126 46.1224H1V48.1224H1.00126V46.1224ZM30 59C22.1445 59 15.0757 57.5788 9.9898 55.3186C7.44579 54.1881 5.44026 52.8664 4.07566 51.4467C2.71521 50.0314 2.03114 48.564 2.00105 47.1019L0.00147153 47.143C0.0446864 49.2425 1.03148 51.1657 2.63374 52.8327C4.23185 54.4953 6.48089 55.9479 9.17759 57.1463C14.5731 59.544 21.9304 61 30 61V59ZM57.999 47.1019C57.9689 48.564 57.2848 50.0314 55.9243 51.4467C54.5597 52.8664 52.5542 54.1881 50.0102 55.3186C44.9243 57.5788 37.8555 59 30 59V61C38.0696 61 45.4269 59.544 50.8224 57.1463C53.5191 55.9479 55.7681 54.4953 57.3663 52.8327C58.9685 51.1657 59.9553 49.2425 59.9985 47.143L57.999 47.1019ZM59 46.1224H58.9987V48.1224H59V46.1224ZM58 47V47.1224H60V47H58ZM58 32V47H60V32H58Z" fill="black"/>
<ellipse cx="30" cy="30.3367" rx="29" ry="12.3367" fill="white" stroke="black" stroke-width="2"/>
<path fill-rule="evenodd" clip-rule="evenodd" d="M59 15H1V30V30.1224H1.00126C1.14788 37.2458 14.0749 43 30 43C45.9251 43 58.8521 37.2458 58.9987 30.1224H59V30V15Z" fill="#E2E2E2"/>
<path d="M1 15V14H0V15H1ZM59 15H60V14H59V15ZM1 30.1224H0V31.1224H1V30.1224ZM1.00126 30.1224L2.00105 30.1019L1.98089 29.1224H1.00126V30.1224ZM58.9987 30.1224V29.1224H58.0191L57.999 30.1019L58.9987 30.1224ZM59 30.1224V31.1224H60V30.1224H59ZM1 16H59V14H1V16ZM2 30V15H0V30H2ZM2 30.1224V30H0V30.1224H2ZM1.00126 29.1224H1V31.1224H1.00126V29.1224ZM30 42C22.1445 42 15.0757 40.5788 9.9898 38.3186C7.44579 37.1881 5.44026 35.8664 4.07566 34.4467C2.71521 33.0314 2.03114 31.564 2.00105 30.1019L0.00147153 30.143C0.0446864 32.2425 1.03148 34.1657 2.63374 35.8327C4.23185 37.4953 6.48089 38.9479 9.17759 40.1463C14.5731 42.544 21.9304 44 30 44V42ZM57.999 30.1019C57.9689 31.564 57.2848 33.0314 55.9243 34.4467C54.5597 35.8664 52.5542 37.1881 50.0102 38.3186C44.9243 40.5788 37.8555 42 30 42V44C38.0696 44 45.4269 42.544 50.8224 40.1463C53.5191 38.9479 55.7681 37.4953 57.3663 35.8327C58.9685 34.1657 59.9553 32.2425 59.9985 30.143L57.999 30.1019ZM59 29.1224H58.9987V31.1224H59V29.1224ZM58 30V30.1224H60V30H58ZM58 15V30H60V15H58Z" fill="black"/>
<ellipse cx="30" cy="13.3367" rx="29" ry="12.3367" fill="white" stroke="black" stroke-width="2"/>
<path d="M44 11.077C44 10.022 42.7292 9.16366 41.1671 9.16366C39.605 9.16366 38.3342 10.022 38.3342 11.077C38.3342 11.557 38.5978 11.9958 39.0314 12.332L36.1029 14.1464L32.3679 8.93322L34.5509 7.20148L30.5153 4L26.4799 7.20156L28.5657 8.85622L24.8574 14.1168L21.97 12.331C22.4029 11.9949 22.6659 11.5565 22.6659 11.077C22.6659 10.022 21.3951 9.16366 19.833 9.16366C18.2708 9.16366 17 10.022 17 11.077C17 12.0546 18.0917 12.8629 19.4948 12.9763L20.3628 20H40.6373L41.5053 12.9763C42.9083 12.8629 44 12.0546 44 11.077Z" fill="url(#paint0_linear_118_137)" stroke="black"/>
<path d="M38.5 25.5L28 26C27 33 23.5 56 19 59C19 59.5 20.6667 60 23 59.5L33 60L43.5 58.5L53.5 55L58.5 50.5L59 47.5V36.5L58.5 17L54 20.5L46.5 23.5L38.5 25.5Z" fill="url(#paint1_linear_118_137)"/>
<path d="M2 18C6.5 24 21 27 28.5 26C23 34 24.5 55.5 26.5 59C21.5 58.5 7.5 57 3 50L2 48V18Z" fill="url(#paint2_linear_118_137)"/>
<defs>
<linearGradient id="paint0_linear_118_137" x1="30.5" y1="4" x2="30.5" y2="37.5" gradientUnits="userSpaceOnUse">
<stop stop-color="#FFD178"/>
<stop offset="1" stop-color="#FFD178" stop-opacity="0"/>
</linearGradient>
<linearGradient id="paint1_linear_118_137" x1="72.5" y1="43.5" x2="39" y2="34" gradientUnits="userSpaceOnUse">
<stop/>
<stop offset="1" stop-color="#BFBFBF" stop-opacity="0"/>
</linearGradient>
<linearGradient id="paint2_linear_118_137" x1="-2" y1="34" x2="17" y2="41" gradientUnits="userSpaceOnUse">
<stop stop-color="white"/>
<stop offset="1" stop-color="white" stop-opacity="0"/>
</linearGradient>
</defs>
</svg>
