<svg width="60" height="44" viewBox="0 0 60 44" fill="none" xmlns="http://www.w3.org/2000/svg">
<path fill-rule="evenodd" clip-rule="evenodd" d="M59 15H1V30V30.1224H1.00126C1.14788 37.2458 14.0749 43 30 43C45.9251 43 58.8521 37.2458 58.9987 30.1224H59V30V15Z" fill="#E2E2E2"/>
<path d="M1 15V14H0V15H1ZM59 15H60V14H59V15ZM1 30.1224H0V31.1224H1V30.1224ZM1.00126 30.1224L2.00105 30.1019L1.98089 29.1224H1.00126V30.1224ZM58.9987 30.1224V29.1224H58.0191L57.999 30.1019L58.9987 30.1224ZM59 30.1224V31.1224H60V30.1224H59ZM1 16H59V14H1V16ZM2 30V15H0V30H2ZM2 30.1224V30H0V30.1224H2ZM1.00126 29.1224H1V31.1224H1.00126V29.1224ZM30 42C22.1445 42 15.0757 40.5788 9.9898 38.3186C7.44579 37.1881 5.44026 35.8664 4.07566 34.4467C2.71521 33.0314 2.03114 31.564 2.00105 30.1019L0.00147153 30.143C0.0446864 32.2425 1.03148 34.1657 2.63374 35.8327C4.23185 37.4953 6.48089 38.9479 9.17759 40.1463C14.5731 42.544 21.9304 44 30 44V42ZM57.999 30.1019C57.9689 31.564 57.2848 33.0314 55.9243 34.4467C54.5597 35.8664 52.5542 37.1881 50.0102 38.3186C44.9243 40.5788 37.8555 42 30 42V44C38.0696 44 45.4269 42.544 50.8224 40.1463C53.5191 38.9479 55.7681 37.4953 57.3663 35.8327C58.9685 34.1657 59.9553 32.2425 59.9985 30.143L57.999 30.1019ZM59 29.1224H58.9987V31.1224H59V29.1224ZM58 30V30.1224H60V30H58ZM58 15V30H60V15H58Z" fill="black"/>
<ellipse cx="30" cy="13.3367" rx="29" ry="12.3367" fill="white" stroke="black" stroke-width="2"/>
<path d="M38 25.5L27.5 26C26.5 33 23 39 18.5 42C18.5 42.5 20.1667 43 22.5 42.5L32.5 43L43 41.5L53 38L58 33.5L58.5 30.5V19.5L58 17L53.5 20.5L46 23.5L38 25.5Z" fill="url(#paint0_linear_118_129)"/>
<path d="M2 18.5C9 25 19 26 27 26.5C21.5 34.5 23 38.5 25 42C20 41.5 5.5 39 2.5 32L2 30.5V18.5Z" fill="url(#paint1_linear_118_129)"/>
<defs>
<linearGradient id="paint0_linear_118_129" x1="72" y1="49" x2="39" y2="33.5" gradientUnits="userSpaceOnUse">
<stop/>
<stop offset="1" stop-color="#8E8E8E" stop-opacity="0"/>
</linearGradient>
<linearGradient id="paint1_linear_118_129" x1="4" y1="28" x2="22" y2="33.5" gradientUnits="userSpaceOnUse">
<stop stop-color="white"/>
<stop offset="1" stop-color="white" stop-opacity="0"/>
</linearGradient>
</defs>
</svg>
